<svg id="Layer_1" data-name="Layer 1" xmlns="http://www.w3.org/2000/svg" viewBox="0 0 23 23"><defs><style>.cls-1{fill:#fff;}</style></defs><title>Click</title><path class="cls-1" d="M18.2,23a0.63,0.63,0,0,1-.39-0.13L11.5,18.06,5.18,22.87a0.63,0.63,0,0,1-.77,0,0.71,0.71,0,0,1-.24-0.77l2.41-7.79L0.27,9.5A0.71,0.71,0,0,1,0,8.74,0.66,0.66,0,0,1,.66,8.26H8.46l2.41-7.79a0.65,0.65,0,0,1,1.25,0l2.41,7.79h7.81a0.66,0.66,0,0,1,.62.47,0.71,0.71,0,0,1-.24.77l-6.32,4.81,2.41,7.79a0.71,0.71,0,0,1-.24.77A0.63,0.63,0,0,1,18.2,23ZM2.67,9.63L7.74,13.5a0.71,0.71,0,0,1,.24.77L6,20.51l5.07-3.86a0.63,0.63,0,0,1,.77,0L17,20.51,15,14.26a0.71,0.71,0,0,1,.24-0.77l5.07-3.86H14.06a0.66,0.66,0,0,1-.62-0.47L11.5,2.91,9.56,9.16a0.66,0.66,0,0,1-.62.47H2.67Z"/><path class="cls-1" d="M16.32,5.82a0.64,0.64,0,0,1-.46-0.2,0.71,0.71,0,0,1,0-1L18.48,1.9a0.63,0.63,0,0,1,.93,0,0.71,0.71,0,0,1,0,1L16.79,5.62A0.64,0.64,0,0,1,16.32,5.82Z"/><path class="cls-1" d="M6.6,5.86a0.64,0.64,0,0,1-.46-0.2L3.52,2.91a0.71,0.71,0,0,1,0-1,0.63,0.63,0,0,1,.93,0L7.07,4.68a0.71,0.71,0,0,1,0,1A0.64,0.64,0,0,1,6.6,5.86Z"/><path class="cls-1" d="M2,16.93a0.66,0.66,0,0,1-.62-0.46,0.7,0.7,0,0,1,.4-0.88l2.64-1a0.65,0.65,0,0,1,.84.42,0.7,0.7,0,0,1-.4.88l-2.64,1A0.63,0.63,0,0,1,2,16.93Z"/><path class="cls-1" d="M21.34,16.93a0.63,0.63,0,0,1-.22,0l-2.64-1a0.7,0.7,0,0,1-.4-0.88,0.65,0.65,0,0,1,.84-0.42l2.64,1a0.7,0.7,0,0,1,.4.88A0.66,0.66,0,0,1,21.34,16.93Z"/></svg>