<svg id="Layer_1" data-name="Layer 1" xmlns="http://www.w3.org/2000/svg" viewBox="0 0 23 23"><defs><style>.cls-1{fill:#fff;}</style></defs><title>Click</title><path class="cls-1" d="M17.12,23H5.88a1.43,1.43,0,0,1-1.44-1.42V14.42A6.09,6.09,0,0,1,.25,8.67,6.17,6.17,0,0,1,6.42,2.59a6.34,6.34,0,0,1,10.17,0,6.17,6.17,0,0,1,6.16,6.08,6.09,6.09,0,0,1-4.19,5.75v7.16A1.43,1.43,0,0,1,17.12,23ZM6.49,4A4.8,4.8,0,0,0,1.62,8.67a4.74,4.74,0,0,0,3.67,4.57,0.68,0.68,0,0,1,.52.66v7.67a0.07,0.07,0,0,0,.08.05H17.12a0.07,0.07,0,0,0,.08-0.05V13.91a0.68,0.68,0,0,1,.52-0.66,4.74,4.74,0,0,0,3.67-4.57A4.8,4.8,0,0,0,16.51,4H16.26a0.68,0.68,0,0,1-.61-0.32,5,5,0,0,0-8.3,0A0.68,0.68,0,0,1,6.74,4H6.49Z"/><path class="cls-1" d="M10.38,12.72a0.68,0.68,0,0,1-.53-1.12,4.64,4.64,0,1,0-8.23-3,0.68,0.68,0,1,1-1.37,0A6,6,0,1,1,10.9,12.48,0.68,0.68,0,0,1,10.38,12.72Z"/><path class="cls-1" d="M14.18,19.85H5.12a0.68,0.68,0,1,1,0-1.37h9.06A0.68,0.68,0,1,1,14.18,19.85Z"/></svg>