<svg id="Layer_1" data-name="Layer 1" xmlns="http://www.w3.org/2000/svg" viewBox="0 0 23 23"><defs><style>.cls-1{fill:none;}.cls-2{fill:#fff;}</style></defs><title>Click</title><path class="cls-1" d="M20,6.85a5.3,5.3,0,0,0-.83-1.56l-0.3,1.19A3.1,3.1,0,0,1,20,6.85Z"/><path class="cls-1" d="M5,3.94H3.72a1.26,1.26,0,0,0,0,2.51H4.32a0.68,0.68,0,0,1,0-.18Z"/><path class="cls-1" d="M18.43,7.85H3.72a2.64,2.64,0,0,1-1.26-.32v12a2.1,2.1,0,0,0,2.1,2.1H18.43a2.1,2.1,0,0,0,2.1-2.1V18.62H18.94a3.5,3.5,0,0,1-3.49-3.49V15a3.5,3.5,0,0,1,3.49-3.49h1.59V9C20.53,7.88,19.59,7.85,18.43,7.85Z"/><path class="cls-1" d="M16.84,15v0.09a2.1,2.1,0,0,0,2.1,2.1h1.59V15.78H19.29a0.7,0.7,0,0,1,0-1.4h1.24V12.94H18.94A2.1,2.1,0,0,0,16.84,15Z"/><path class="cls-2" d="M20,4q-0.17-.18-0.36-0.33l0.72-2.85A0.68,0.68,0,0,0,19.74,0H6.65A0.68,0.68,0,0,0,6,.5l-0.56,2H3.8A2.66,2.66,0,0,0,1.14,5.19V19.51A3.5,3.5,0,0,0,4.64,23H18.5A3.5,3.5,0,0,0,22,19.51V9A7.44,7.44,0,0,0,20,4ZM19.29,5.29a5.3,5.3,0,0,1,.83,1.56A3.1,3.1,0,0,0,19,6.48ZM7.17,1.37H18.86L17.62,6.28a0.69,0.69,0,0,0,0,.17H5.78ZM3.8,3.94H5.05L4.41,6.27a0.68,0.68,0,0,0,0,.18H3.8A1.26,1.26,0,0,1,3.8,3.94ZM20.6,14.38H19.36a0.7,0.7,0,1,0,0,1.4H20.6v1.44H19a2.1,2.1,0,0,1-2.1-2.1V15a2.1,2.1,0,0,1,2.1-2.1H20.6v1.44Zm0-2.84H19A3.5,3.5,0,0,0,15.51,15v0.09A3.5,3.5,0,0,0,19,18.62H20.6v0.89a2.1,2.1,0,0,1-2.1,2.1H4.64a2.1,2.1,0,0,1-2.1-2.1v-12a2.64,2.64,0,0,0,1.26.32H18.5c1.16,0,2.1,0,2.1,1.18v2.51Z"/><path class="cls-2" d="M16.72,3.75A0.68,0.68,0,0,0,16,3.06H11.31a0.68,0.68,0,0,0,0,1.37H16A0.68,0.68,0,0,0,16.72,3.75Z"/></svg>