<svg id="Layer_1" data-name="Layer 1" xmlns="http://www.w3.org/2000/svg" viewBox="0 0 23 23"><defs><style>.cls-1{fill:#fff;}</style></defs><title>Click</title><path class="cls-1" d="M20.36,1.68a1.41,1.41,0,0,0-1-.42,2.18,2.18,0,0,0-.95.32l-1.05.56a6.79,6.79,0,0,1-1.16.5A3.73,3.73,0,0,1,15,2.84a1.57,1.57,0,0,1-.72-0.15h0a21.64,21.64,0,0,0-2.64-1.06,8.53,8.53,0,0,0-2.54-.37,11.77,11.77,0,0,0-5.2,1.46L3.59,0.59A0.69,0.69,0,1,0,2.22.8L2.69,3.89,4,13.55H4l1.27,8.85A0.69,0.69,0,0,0,6,23h0.1a0.69,0.69,0,0,0,.59-0.78l-1.2-8.35a9.9,9.9,0,0,1,4-1.09,4.77,4.77,0,0,1,1.45.22,6.59,6.59,0,0,1,1.22.5,8.48,8.48,0,0,0,1.38.61,5,5,0,0,0,1.67.3A10,10,0,0,0,19.81,13a2.35,2.35,0,0,0,.64-0.46,1.31,1.31,0,0,0,.33-0.92V2.69A1.41,1.41,0,0,0,20.36,1.68Zm-1,9.93a1.52,1.52,0,0,1-.23.14h0a8.85,8.85,0,0,1-4,1.27A3.65,3.65,0,0,1,14,12.81a7.1,7.1,0,0,1-1.15-.51,7.84,7.84,0,0,0-1.48-.62,6.15,6.15,0,0,0-1.87-.29,10.77,10.77,0,0,0-4.21,1L5,10.53l0.1,0a10.52,10.52,0,0,1,4.46-1.3A4.77,4.77,0,0,1,11,9.41a0.69,0.69,0,1,0,.42-1.32A6.15,6.15,0,0,0,9.56,7.8,11.44,11.44,0,0,0,4.8,9.09L4.13,4.16,4.52,4a10.47,10.47,0,0,1,4.6-1.33,7.15,7.15,0,0,1,2.13.31,20.24,20.24,0,0,1,2.46,1,3.84,3.84,0,0,0,2.91,0A8.17,8.17,0,0,0,18,3.34l1-.53,0.35-.16h0l0,0V8h0a1.52,1.52,0,0,1-.23.14h0a8.85,8.85,0,0,1-4,1.27A3.65,3.65,0,0,1,14,9.22a0.69,0.69,0,0,0-.46,1.3,5,5,0,0,0,1.67.3A9.5,9.5,0,0,0,19.4,9.6v2h0Z"/></svg>